<svg width="101" height="86" viewBox="0 0 101 86" fill="none" xmlns="http://www.w3.org/2000/svg">
<path d="M59.2593 22.0502L65.3884 15.6316L49.3417 0.308762L34.0189 16.3555L40.4376 22.4846L22.0502 41.7406L15.6315 35.6115L0.308716 51.6582L16.3554 66.981L22.4845 60.5623L48.1593 85.0788L75.7403 56.1948L85.3683 65.3884L100.691 49.3417L84.6444 34.0189L78.5153 40.4376L59.2593 22.0502ZM75.4508 43.647L69.3216 50.0656L75.7403 56.1948L48.1593 85.0788L22.4845 60.5623L31.6782 50.9343L25.2595 44.8052L43.6469 25.5492L50.0656 31.6783L56.1947 25.2596L75.4508 43.647ZM84.7892 40.2928L94.4172 49.4865L85.2236 59.1145L75.5955 49.9209L84.7892 40.2928ZM16.2106 60.7071L6.58262 51.5134L15.7763 41.8854L25.4043 51.0791L16.2106 60.7071ZM40.2928 16.2107L49.4865 6.58266L59.1145 15.7763L49.9208 25.4044L40.2928 16.2107Z" fill="black"/>
</svg>
